<?xml version="1.0" encoding="UTF-8"?><svg id="Capa_1" xmlns="http://www.w3.org/2000/svg" viewBox="0 0 125.03 132.7"><defs><style>.cls-1,.cls-2{fill:#fff;}.cls-3{fill:none;}.cls-3,.cls-4,.cls-5,.cls-2{stroke:#1d1d1b;stroke-miterlimit:10;}.cls-3,.cls-2{stroke-width:3.74px;}.cls-4{stroke-width:2.29px;}.cls-4,.cls-5,.cls-6{fill:#1d1d1b;}.cls-5{stroke-width:3.11px;}</style></defs><path class="cls-6" d="M39.44,27.51c10.89-7.31,27.24-5.97,36.89,2.92h.01c.44,.31,4.07,2.67,11.07,2.11,.61-.05,1.24-.12,1.89-.21,4.9-.21,11.1,1.99,16.68,6.32,9.05,7.03,13.05,17.03,8.93,22.33-.53,.68-1.17,1.26-1.91,1.72,0,0-.02,.01-.03,.02-.48,.38-3.89,3.29-2.25,8.33t0,.02c1.35,3.79,1.21,7.33-.73,9.84-.25,.33-.53,.63-.84,.91v.02c-.45,.41-9.57,9.28-3.89,23.47,3,6.73,3.14,13.18-.27,17.57-6.44,8.3-23.14,6.11-37.3-4.89-2.38-1.85-4.54-3.83-6.46-5.9-7.14,6.71-22.76,4.18-36.12-6.2-14.16-11-20.41-26.63-13.96-34.93,.91-1.17,2.02-2.13,3.31-2.89,0,0,0,0,0-.01,.52-.34,14.01-9.22,15.87-22.39h0c-.1-.79-.13-1.55-.12-2.33,.09-5.98,3.21-11.8,9.21-15.83Z"/><path class="cls-1" d="M3.32,67.44s0-.01,.03-.03c0,.01-.02,.02-.02,.03h-.01Z"/><rect class="cls-2" x="35.16" y="51.49" width="52.15" height="79.34" rx="17.45" ry="17.45" transform="translate(122.48 182.32) rotate(180)"/><path class="cls-3" d="M66.93,88.97c.56,6.81,10.24,7.51,10.9-.19"/><path class="cls-3" d="M42.46,89c.56,6.81,10.24,7.51,10.9-.19"/><ellipse class="cls-5" cx="77.82" cy="57.6" rx="18.28" ry="26.39" transform="translate(-13.18 90.64) rotate(-56.46)"/><ellipse class="cls-5" cx="104.89" cy="83.78" rx="18.28" ry="26.39" transform="translate(-12.98 19.53) rotate(-10.02)"/><ellipse class="cls-4" cx="42.43" cy="61.87" rx="19.91" ry="13.2" transform="translate(-32.58 63.04) rotate(-56.46)"/><g><polygon class="cls-6" points="1.46 36.65 9.55 36.15 16.08 31.36 16.59 39.44 21.37 45.98 13.29 46.48 6.76 51.27 6.25 43.18 1.46 36.65"/><path class="cls-6" d="M1.46,38.1c1.41-.09,2.82-.18,4.24-.27l2.66-.17c.49-.03,1.09,0,1.58-.13s.91-.56,1.31-.85l2.15-1.57c1.14-.84,2.28-1.67,3.42-2.51l-2.19-1.25,.27,4.24,.17,2.66c.03,.49,0,1.09,.13,1.58s.56,.91,.85,1.31l1.57,2.15,2.51,3.42,1.25-2.19c-1.41,.09-2.82,.18-4.24,.27l-2.66,.17c-.49,.03-1.09,0-1.58,.13s-.91,.56-1.31,.85l-2.15,1.57c-1.14,.84-2.28,1.67-3.42,2.51l2.19,1.25-.27-4.24-.17-2.66c-.03-.49,0-1.09-.13-1.58s-.56-.91-.85-1.31l-1.57-2.15-2.51-3.42c-.47-.64-1.26-.94-1.99-.52-.63,.36-.98,1.36-.52,1.99l4.79,6.53-.2-.73,.51,8.08c.06,.99,1.23,1.96,2.19,1.25,2.18-1.6,4.36-3.19,6.53-4.79l-.73,.2c2.69-.17,5.39-.34,8.08-.51,.99-.06,1.96-1.23,1.25-2.19l-4.79-6.53,.2,.73c-.17-2.69-.34-5.39-.51-8.08-.06-.99-1.23-1.96-2.19-1.25-2.18,1.6-4.36,3.19-6.53,4.79l.73-.2c-2.69,.17-5.39,.34-8.08,.51-1.86,.12-1.87,3.02,0,2.9Z"/></g><path class="cls-6" d="M5.47,8.24c1.41-.09,2.82-.18,4.24-.27l2.66-.17c.49-.03,1.09,0,1.58-.13s.91-.56,1.31-.85l2.15-1.57c1.14-.84,2.28-1.67,3.42-2.51l-2.19-1.25,.27,4.24,.17,2.66c.03,.49,0,1.09,.13,1.58s.56,.91,.85,1.31l1.57,2.15,2.51,3.42,1.25-2.19c-1.41,.09-2.82,.18-4.24,.27l-2.66,.17c-.49,.03-1.09,0-1.58,.13s-.91,.56-1.31,.85l-2.15,1.57c-1.14,.84-2.28,1.67-3.42,2.51l2.19,1.25-.27-4.24-.17-2.66c-.03-.49,0-1.09-.13-1.58s-.56-.91-.85-1.31l-1.57-2.15-2.51-3.42c-.47-.64-1.26-.94-1.99-.52-.63,.36-.98,1.36-.52,1.99l4.79,6.53-.2-.73,.51,8.08c.06,.99,1.23,1.96,2.19,1.25,2.18-1.6,4.36-3.19,6.53-4.79l-.73,.2c2.69-.17,5.39-.34,8.08-.51,.99-.06,1.96-1.23,1.25-2.19l-4.79-6.53,.2,.73c-.17-2.69-.34-5.39-.51-8.08-.06-.99-1.23-1.96-2.19-1.25-2.18,1.6-4.36,3.19-6.53,4.79l.73-.2c-2.69,.17-5.39,.34-8.08,.51-1.86,.12-1.87,3.02,0,2.9Z"/></svg>